<svg width="143" height="55" viewBox="0 0 143 55" fill="none" xmlns="http://www.w3.org/2000/svg">
<path fill-rule="evenodd" clip-rule="evenodd" d="M54.5988 37.0209C55.5031 29.3842 53.2365 25.9884 60.4206 16.4471L56.078 17.1773C55.8656 14.1929 54.237 12.6711 51.6823 11.9095C52.6835 13.2953 51.9173 15.7068 51.2886 16.7225C46.1161 6.49425 35.388 12.7244 30.9923 3.10908C30.0987 5.77467 30.5036 8.09148 33.1745 10.9678C26.491 5.54125 11.8345 11.6981 7.96065 0C-8.51489 15.0619 5.949 23.799 4.37354 36.7768C5.02284 36.418 5.95963 36.1959 7.2257 35.9739C7.57691 34.556 7.83252 33.0435 7.83252 31.4356C17.1777 34.7781 35.7923 32.9688 41.6779 24.3798C43.1996 29.1935 44.3601 32.652 51.2255 32.63L51.0868 35.9099L51.0974 35.9205C52.7791 36.2166 53.9283 36.4707 54.5988 37.0209ZM30.9186 13.6227C23.5319 9.97348 14.773 14.5111 7.52445 4.39887C16.3903 13.8335 22.3077 7.66801 30.9186 13.6227Z" fill="#171510"/>
<path fill-rule="evenodd" clip-rule="evenodd" d="M49.7875 36.5027C45.0094 35.7091 38.3776 36.27 34.7062 37.5818C30.7154 38.9983 33.0677 40.8182 29.31 40.8182C25.5529 40.8182 27.9157 38.9983 23.9137 37.5818C20.2423 36.27 13.6112 35.7084 8.83303 36.5027C4.80975 37.1796 3.06433 37.4017 3.38367 39.9832C3.50052 40.8816 4.03298 39.5805 4.2773 41.8653C4.68162 45.3245 4.3948 50.3382 7.28944 53.0138C7.63069 53.3312 8.02373 53.6173 8.46058 53.8608C11.7595 55.7014 18.6887 55.2779 21.7646 52.8344C25.7235 49.6926 25.9579 44.901 28.2988 44.1294C29.1088 43.8646 29.5124 43.8646 30.3217 44.1294C32.6627 44.901 32.897 49.6926 36.8572 52.8344C39.9331 55.2779 46.861 55.7014 50.1606 53.8608C54.3001 51.544 53.8958 45.7266 54.3433 41.8659C54.5882 39.5805 55.1207 40.8816 55.2375 39.9839C55.5569 37.401 53.8108 37.1789 49.7875 36.5027ZM24.1912 42.5635C23.8612 46.1494 21.5628 50.8991 17.9545 52.1255C15.9435 52.8131 13.0057 53.0351 10.8772 52.4216C8.69495 51.7974 7.62008 50.5603 7.03452 48.2435C6.52331 46.2334 6.35335 42.8803 7.03452 40.9976C7.84382 38.7875 9.91853 38.7241 12.6113 38.5548C15.1229 38.396 17.4751 38.5334 19.8911 38.9876C21.0091 39.1983 22.0946 39.4004 23.042 39.9079C24.1806 40.5114 24.3399 40.9976 24.1912 42.5635ZM51.586 48.2435C51.0011 50.5603 49.9263 51.7974 47.744 52.4216C45.6162 53.0351 42.6777 52.8131 40.6667 52.1255C37.0577 50.8991 34.76 46.1494 34.4293 42.5635C34.28 40.9976 34.44 40.5121 35.5792 39.9086C36.526 39.401 37.6121 39.1997 38.7288 38.9883C41.1454 38.5334 43.497 38.396 46.0085 38.5554C48.702 38.7248 50.7774 38.7882 51.5854 40.9983C52.2685 42.8803 52.0972 46.2334 51.586 48.2435Z" fill="#1868B1"/>
<path fill-rule="evenodd" clip-rule="evenodd" d="M15.336 42.3087C15.5173 42.3087 15.6879 42.3201 15.8685 42.3514C15.7722 42.5948 15.7191 42.8596 15.7191 43.1344C15.7191 44.3301 16.699 45.3031 17.9007 45.3031C18.0288 45.3031 18.1669 45.2811 18.295 45.2604C18.2844 46.879 16.9652 48.1801 15.336 48.1801C13.6975 48.1801 12.3776 46.8683 12.3776 45.2498C12.3776 43.6212 13.6975 42.3087 15.336 42.3087ZM14.1868 45.8C14.6661 45.8 15.0591 46.1808 15.0591 46.6569C15.0591 47.1431 14.6655 47.5239 14.1868 47.5239C13.7081 47.5239 13.3144 47.1431 13.3144 46.6569C13.3144 46.1808 13.7081 45.8 14.1868 45.8Z" fill="#171510"/>
<path fill-rule="evenodd" clip-rule="evenodd" d="M42.6472 42.3087C42.8271 42.3087 43.009 42.3201 43.1796 42.3514C43.0834 42.5948 43.0296 42.8596 43.0296 43.1344C43.0296 44.3301 44.0095 45.3031 45.2119 45.3031C45.3506 45.3031 45.4774 45.2811 45.6062 45.2604C45.5943 46.879 44.2751 48.1801 42.6472 48.1801C41.0186 48.1801 39.6881 46.8683 39.6881 45.2498C39.6875 43.6212 41.0179 42.3087 42.6472 42.3087ZM41.4973 45.8C41.9866 45.8 42.3697 46.1808 42.3697 46.6569C42.3697 47.1431 41.9866 47.5239 41.4973 47.5239C41.018 47.5239 40.6249 47.1431 40.6249 46.6569C40.6249 46.1808 41.018 45.8 41.4973 45.8Z" fill="#171510"/>
<path d="M74.4218 46.1354H70.0493L67.4209 42.8783L70.295 41.0029L74.4218 46.1354ZM70.516 40.4601C70.123 40.641 69.7545 40.7726 69.4106 40.8549C69.0831 40.9371 68.6737 40.9947 68.1824 41.0276C67.7075 41.0441 67.1098 41.0523 66.3892 41.0523C65.685 41.0358 64.7679 41.0276 63.638 41.0276V46.1354H60.1744V28.8627H67.9613C68.7965 28.8627 69.5744 29.0272 70.295 29.3562C71.0319 29.6688 71.6706 30.1047 72.211 30.664C72.7678 31.2069 73.2018 31.8566 73.5129 32.6134C73.8405 33.3536 74.0042 34.1432 74.0042 34.9822C74.0042 36.2159 73.6767 37.3181 73.0216 38.2887C72.383 39.2592 71.5478 39.983 70.516 40.4601ZM63.638 37.5731H67.9613C68.6983 37.5731 69.3206 37.3181 69.8282 36.8082C70.3359 36.2817 70.5897 35.5826 70.5897 34.7108C70.5897 34.3488 70.516 34.0034 70.3687 33.6744C70.2376 33.3289 70.0493 33.0246 69.8037 32.7614C69.5744 32.4982 69.296 32.2926 68.9685 32.1445C68.6573 31.98 68.3216 31.8978 67.9613 31.8978H63.638V37.5731Z" fill="black"/>
<path d="M80.586 33.6004C81.4539 33.6004 82.2728 33.7731 83.0424 34.1185C83.8121 34.4476 84.4836 34.8999 85.0567 35.4757C85.6299 36.0514 86.0803 36.7259 86.4078 37.4991C86.7517 38.2722 86.9237 39.103 86.9237 39.9913C86.9237 40.4683 86.8745 40.9289 86.7763 41.3731L86.7517 41.4224H80.5123L78.9402 38.9055H83.6074C83.3782 38.2146 82.9933 37.6471 82.4529 37.203C81.9289 36.7588 81.3066 36.5367 80.586 36.5367C80.1438 36.5367 79.7262 36.6272 79.3332 36.8082C78.9402 36.9891 78.5963 37.2359 78.3015 37.5484C78.0231 37.8445 77.802 38.2064 77.6382 38.6341C77.4745 39.0454 77.3926 39.4978 77.3926 39.9913C77.3926 40.3696 77.4663 40.7644 77.6137 41.1757C77.7611 41.5705 77.974 41.9324 78.2524 42.2614C78.5308 42.5904 78.8665 42.87 79.2595 43.1003C79.6525 43.3142 80.0947 43.4211 80.586 43.4211C81.0282 43.4211 81.4294 43.3635 81.7897 43.2484C82.1663 43.1168 82.5184 42.8371 82.8459 42.4094L82.8705 42.3848L82.9196 42.4094L85.7691 43.6679L85.72 43.7172C85.1304 44.5397 84.3771 45.1813 83.46 45.6419C82.5593 46.1025 81.6013 46.3328 80.586 46.3328C79.7017 46.3328 78.8665 46.1683 78.0804 45.8393C77.3107 45.5103 76.6393 45.0579 76.0661 44.4822C75.4929 43.9064 75.0344 43.2319 74.6905 42.4588C74.363 41.6856 74.1992 40.8631 74.1992 39.9913C74.1992 39.103 74.363 38.2722 74.6905 37.4991C75.0344 36.7259 75.4929 36.0514 76.0661 35.4757C76.6393 34.8999 77.3107 34.4476 78.0804 34.1185C78.8665 33.7731 79.7017 33.6004 80.586 33.6004Z" fill="black"/>
<path d="M100.939 33.7978H104.329L104.304 33.8224L101.013 46.1354H97.107L95.5103 38.8315L93.8645 46.1354H91.3343V46.0861L93.7908 33.7978H97.1807L99.0476 43.1497L100.939 33.7978ZM90.1061 33.8224L91.8011 42.5081L89.6394 44.7536L89.6148 44.7042L86.6916 33.7978H90.1061V33.8224Z" fill="black"/>
<path d="M110.5 33.6004C111.368 33.6004 112.187 33.7731 112.957 34.1185C113.726 34.4476 114.398 34.8999 114.971 35.4757C115.544 36.0514 115.994 36.7259 116.322 37.4991C116.666 38.2722 116.838 39.103 116.838 39.9913C116.838 40.4683 116.789 40.9289 116.69 41.3731L116.666 41.4224H110.426L108.854 38.9055H113.522C113.292 38.2146 112.907 37.6471 112.367 37.203C111.843 36.7588 111.221 36.5367 110.5 36.5367C110.058 36.5367 109.64 36.6272 109.247 36.8082C108.854 36.9891 108.51 37.2359 108.216 37.5484C107.937 37.8445 107.716 38.2064 107.552 38.6341C107.389 39.0454 107.307 39.4978 107.307 39.9913C107.307 40.3696 107.38 40.7644 107.528 41.1757C107.675 41.5705 107.888 41.9324 108.166 42.2614C108.445 42.5904 108.781 42.87 109.174 43.1003C109.567 43.3142 110.009 43.4211 110.5 43.4211C110.942 43.4211 111.343 43.3635 111.704 43.2484C112.08 43.1168 112.433 42.8371 112.76 42.4094L112.785 42.3848L112.834 42.4094L115.683 43.6679L115.634 43.7172C115.045 44.5397 114.291 45.1813 113.374 45.6419C112.473 46.1025 111.515 46.3328 110.5 46.3328C109.616 46.3328 108.781 46.1683 107.995 45.8393C107.225 45.5103 106.553 45.0579 105.98 44.4822C105.407 43.9064 104.948 43.2319 104.605 42.4588C104.277 41.6856 104.113 40.8631 104.113 39.9913C104.113 39.103 104.277 38.2722 104.605 37.4991C104.948 36.7259 105.407 36.0514 105.98 35.4757C106.553 34.8999 107.225 34.4476 107.995 34.1185C108.781 33.7731 109.616 33.6004 110.5 33.6004Z" fill="black"/>
<path d="M131.248 33.7978V46.1354H128.03V39.9666C128.03 39.4895 127.94 39.0454 127.76 38.6341C127.579 38.2229 127.326 37.861 126.998 37.5484C126.687 37.2359 126.318 36.9973 125.893 36.8328C125.483 36.6519 125.049 36.5614 124.591 36.5614C124.116 36.5614 123.674 36.6519 123.264 36.8328C122.855 37.0138 122.486 37.2605 122.159 37.5731C121.848 37.8692 121.602 38.2311 121.422 38.6588C121.242 39.0701 121.152 39.5142 121.152 39.9913C121.152 40.4519 121.242 40.8878 121.422 41.2991C121.602 41.7103 121.848 42.0722 122.159 42.3848C122.486 42.6973 122.855 42.9441 123.264 43.125C123.674 43.306 124.116 43.3964 124.591 43.3964C125.098 43.3964 125.532 43.306 125.893 43.125H125.917V43.1744L127.145 45.3705L127.121 45.3951C126.318 46.0203 125.328 46.3328 124.149 46.3328C123.281 46.3328 122.462 46.1683 121.692 45.8393C120.922 45.5103 120.251 45.0579 119.678 44.4822C119.105 43.9064 118.646 43.2319 118.302 42.4588C117.975 41.6856 117.811 40.8631 117.811 39.9913C117.811 39.103 117.975 38.2722 118.302 37.4991C118.646 36.7259 119.105 36.0514 119.678 35.4757C120.251 34.8999 120.922 34.4476 121.692 34.1185C122.462 33.7731 123.281 33.6004 124.149 33.6004C125 33.6004 125.745 33.7649 126.384 34.0939C127.023 34.4064 127.571 34.867 128.03 35.4757V33.7978H131.248Z" fill="black"/>
<path d="M143 34.2913L142.705 34.7848L141.452 37.0302L141.428 37.0056C140.887 36.693 140.306 36.5367 139.684 36.5367C139.258 36.5367 138.857 36.6107 138.48 36.7588C138.103 36.8904 137.768 37.0878 137.473 37.351C137.178 37.5978 136.924 37.8939 136.711 38.2393C136.515 38.5848 136.384 38.9549 136.318 39.3497V46.1354H132.978V33.7978H136.318V35.4017C137.186 34.2008 138.456 33.6004 140.126 33.6004C141.109 33.6004 142.058 33.8307 142.975 34.2913H143Z" fill="black"/>
</svg>
